<svg width="56" height="56" viewBox="0 0 56 56" fill="none" xmlns="http://www.w3.org/2000/svg">
<path d="M42.6673 20V14.6667C42.6673 14.3131 42.5268 13.9739 42.2768 13.7239C42.0267 13.4738 41.6876 13.3334 41.334 13.3334H14.6673C14.3137 13.3334 13.9746 13.4738 13.7245 13.7239C13.4745 13.9739 13.334 14.3131 13.334 14.6667V20H42.6673Z" fill="#2EC5CE"/>
<path d="M13.334 22.6667V41.3334C13.334 41.687 13.4745 42.0262 13.7245 42.2762C13.9746 42.5263 14.3137 42.6667 14.6673 42.6667H21.334V22.6667H13.334Z" fill="#D6B1FF"/>
<path d="M24 42.6667H41.3333C41.687 42.6667 42.0261 42.5263 42.2761 42.2762C42.5262 42.0262 42.6667 41.687 42.6667 41.3334V22.6667H24V42.6667Z" fill="#8C30F5"/>
</svg>
